<svg width="93" height="87" viewBox="0 0 93 87" fill="none" xmlns="http://www.w3.org/2000/svg">
<rect width="93" height="87" rx="20" fill="#C58947"/>
<path d="M33.0853 37.2C33.0853 34.8267 33.3653 33.1333 33.9253 32.12C34.512 31.08 35.4053 30.56 36.6053 30.56C37.3786 30.56 37.9786 30.7867 38.4053 31.24C38.832 31.6933 39.1253 32.3067 39.2853 33.08C39.472 33.8267 39.5653 34.68 39.5653 35.64C39.5653 37.0533 39.5386 38.7333 39.4853 40.68C39.432 42.6267 39.352 44.6267 39.2453 46.68C39.1653 48.7067 39.0586 50.5867 38.9253 52.32H39.0853C39.8586 48.9067 40.632 46.0267 41.4053 43.68C42.2053 41.3067 43.0053 39.5067 43.8053 38.28C44.6053 37.0267 45.4186 36.4 46.2453 36.4C47.152 36.4 48.0186 37.04 48.8453 38.32C49.672 39.6 50.4853 41.44 51.2853 43.84C52.112 46.24 52.952 49.1067 53.8053 52.44H53.9653C53.8853 50.5467 53.8053 48.5867 53.7253 46.56C53.672 44.5333 53.6186 42.5333 53.5653 40.56C53.5386 38.56 53.5253 36.7067 53.5253 35C53.5253 33.5333 53.6453 32.4133 53.8853 31.64C54.1253 30.84 54.4586 30.28 54.8853 29.96C55.312 29.64 55.8053 29.48 56.3653 29.48C57.512 29.48 58.392 30.12 59.0053 31.4C59.6186 32.6533 59.9253 34.5067 59.9253 36.96C59.9253 38.96 59.8453 41.0133 59.6853 43.12C59.552 45.2267 59.3386 47.28 59.0453 49.28C58.752 51.2533 58.392 53.0933 57.9653 54.8C57.6186 56.2133 57.152 57.32 56.5653 58.12C56.0053 58.92 55.2586 59.32 54.3253 59.32C53.6053 59.32 52.8853 58.92 52.1653 58.12C51.472 57.32 50.792 56.1867 50.1253 54.72C49.4586 53.2267 48.8186 51.48 48.2053 49.48C47.6186 47.4533 47.0586 45.2267 46.5253 42.8H46.3653C45.832 45.2267 45.2586 47.4133 44.6453 49.36C44.0586 51.3067 43.432 52.9733 42.7653 54.36C42.1253 55.72 41.4186 56.76 40.6453 57.48C39.8986 58.2 39.0986 58.56 38.2453 58.56C37.2853 58.56 36.5386 58.1733 36.0053 57.4C35.472 56.6267 35.032 55.3467 34.6853 53.56C34.472 52.4667 34.272 51.2133 34.0853 49.8C33.8986 48.36 33.7253 46.88 33.5653 45.36C33.432 43.8133 33.312 42.3333 33.2053 40.92C33.1253 39.5067 33.0853 38.2667 33.0853 37.2Z" fill="white"/>
</svg>
